<svg width="56" height="56" viewBox="0 0 56 56" fill="none" xmlns="http://www.w3.org/2000/svg">
<g clip-path="url(#clip0_5657_643)">
<path d="M16.3333 30.3333H13.9999C11.4226 30.3333 9.33325 32.4227 9.33325 35V42C9.33325 44.5773 11.4226 46.6667 13.9999 46.6667H16.3333C18.9106 46.6667 20.9999 44.5773 20.9999 42V35C20.9999 32.4227 18.9106 30.3333 16.3333 30.3333Z" stroke="black" stroke-width="2" stroke-linecap="round" stroke-linejoin="round"/>
<path d="M42 30.3333H39.6667C37.0893 30.3333 35 32.4227 35 35V42C35 44.5773 37.0893 46.6667 39.6667 46.6667H42C44.5773 46.6667 46.6667 44.5773 46.6667 42V35C46.6667 32.4227 44.5773 30.3333 42 30.3333Z" stroke="black" stroke-width="2" stroke-linecap="round" stroke-linejoin="round"/>
<path d="M9.33325 35V28C9.33325 23.0493 11.2999 18.3014 14.8006 14.8007C18.3013 11.3 23.0492 9.33334 27.9999 9.33334C32.9506 9.33334 37.6986 11.3 41.1992 14.8007C44.6999 18.3014 46.6666 23.0493 46.6666 28V35" stroke="black" stroke-width="2" stroke-linecap="round" stroke-linejoin="round"/>
</g>
<defs>
<clipPath id="clip0_5657_643">
<rect width="56" height="56" fill="white"/>
</clipPath>
</defs>
</svg>
